<svg xmlns="http://www.w3.org/2000/svg" xmlns:xlink="http://www.w3.org/1999/xlink" width="40" zoomAndPan="magnify" viewBox="0 0 30 30.000001" height="40" preserveAspectRatio="xMidYMid meet" version="1.0"><defs><clipPath id="dfd85bb8bc"><path d="M 0.484375 0 L 29.515625 0 L 29.515625 29.03125 L 0.484375 29.03125 Z M 0.484375 0 " clip-rule="nonzero"/></clipPath></defs><g clip-path="url(#dfd85bb8bc)"><path fill="#5e253a" d="M 29.515625 29.03125 L 23.710938 29.03125 L 23.710938 18.871094 C 23.710938 16.085938 22.480469 14.53125 20.273438 14.53125 C 17.875 14.53125 16.453125 16.152344 16.453125 18.871094 L 16.453125 29.03125 L 10.644531 29.03125 L 10.644531 10.160156 L 16.453125 10.160156 L 16.453125 12.285156 C 16.453125 12.285156 18.273438 9.085938 22.378906 9.085938 C 26.484375 9.085938 29.515625 11.59375 29.515625 16.777344 Z M 4.027344 7.144531 C 2.070312 7.144531 0.484375 5.542969 0.484375 3.570312 C 0.484375 1.601562 2.070312 0 4.027344 0 C 5.984375 0 7.570312 1.601562 7.570312 3.570312 C 7.574219 5.542969 5.984375 7.144531 4.027344 7.144531 Z M 0.484375 29.03125 L 7.742188 29.03125 L 7.742188 10.160156 L 0.484375 10.160156 Z M 0.484375 29.03125 " fill-opacity="1" fill-rule="evenodd"/></g></svg>