<svg xmlns="http://www.w3.org/2000/svg" xmlns:xlink="http://www.w3.org/1999/xlink" width="40" zoomAndPan="magnify" viewBox="0 0 30 30.000001" height="40" preserveAspectRatio="xMidYMid meet" version="1.0"><defs><clipPath id="c738e0f834"><path d="M 3 1 L 28.082031 1 L 28.082031 29.03125 L 3 29.03125 Z M 3 1 " clip-rule="nonzero"/></clipPath><clipPath id="1cc62fff9f"><path d="M 4 12 L 19 12 L 19 26 L 4 26 Z M 4 12 " clip-rule="nonzero"/></clipPath><clipPath id="430efd8b42"><path d="M 15.578125 0.015625 L 20.347656 0 C 20.402344 2.726562 21.714844 4.402344 23.183594 5.4375 C 23.183594 5.453125 23.203125 5.453125 23.203125 5.453125 C 24.238281 6.230469 25.46875 6.628906 27.003906 6.664062 L 27.003906 11.425781 C 24.289062 11.425781 22.042969 10.546875 20.347656 9.285156 L 20.332031 19.226562 C 20.296875 21.921875 19.140625 23.921875 17.738281 25.253906 C 17.617188 25.375 17.496094 25.492188 17.359375 25.597656 C 15.558594 27.117188 13.796875 27.824219 11.375 27.808594 C 8.992188 27.773438 7.191406 26.875 5.671875 25.5625 C 4.53125 24.578125 3.613281 23.300781 3.097656 21.542969 C 1.972656 17.675781 3.390625 13.84375 6.589844 11.652344 C 6.65625 11.597656 6.742188 11.546875 6.828125 11.496094 C 9.421875 9.871094 12.5 9.511719 15.558594 11.046875 C 15.578125 13.289062 15.558594 15.691406 15.558594 17.917969 C 14.835938 15.207031 11.238281 13.773438 8.886719 15.8125 C 8.871094 15.828125 8.816406 15.878906 8.800781 15.898438 C 7.867188 16.691406 7.453125 17.933594 7.519531 19.261719 C 7.695312 21.644531 9.664062 23.128906 11.808594 23.027344 C 11.808594 23.027344 11.828125 23.027344 11.828125 23.027344 C 13.902344 22.820312 15.613281 21.128906 15.558594 18.847656 Z M 15.578125 0.015625 " clip-rule="evenodd"/></clipPath><clipPath id="f208f13a88"><path d="M 3 1 L 27.039062 1 L 27.039062 27.894531 L 3 27.894531 Z M 3 1 " clip-rule="nonzero"/></clipPath><clipPath id="ffbc07628f"><path d="M 15.578125 0.015625 L 20.347656 0 C 20.402344 2.726562 21.714844 4.402344 23.183594 5.4375 C 23.183594 5.453125 23.203125 5.453125 23.203125 5.453125 C 24.238281 6.230469 25.46875 6.628906 27.003906 6.664062 L 27.003906 11.425781 C 24.289062 11.425781 22.042969 10.546875 20.347656 9.285156 L 20.332031 19.226562 C 20.296875 21.921875 19.140625 23.921875 17.738281 25.253906 C 17.617188 25.375 17.496094 25.492188 17.359375 25.597656 C 15.558594 27.117188 13.796875 27.824219 11.375 27.808594 C 8.992188 27.773438 7.191406 26.875 5.671875 25.5625 C 4.53125 24.578125 3.613281 23.300781 3.097656 21.542969 C 1.972656 17.675781 3.390625 13.84375 6.589844 11.652344 C 6.65625 11.597656 6.742188 11.546875 6.828125 11.496094 C 9.421875 9.871094 12.5 9.511719 15.558594 11.046875 C 15.578125 13.289062 15.558594 15.691406 15.558594 17.917969 C 14.835938 15.207031 11.238281 13.773438 8.886719 15.8125 C 8.871094 15.828125 8.816406 15.878906 8.800781 15.898438 C 7.867188 16.691406 7.453125 17.933594 7.519531 19.261719 C 7.695312 21.644531 9.664062 23.128906 11.808594 23.027344 C 11.808594 23.027344 11.828125 23.027344 11.828125 23.027344 C 13.902344 22.820312 15.613281 21.128906 15.558594 18.847656 Z M 15.578125 0.015625 " clip-rule="evenodd"/></clipPath></defs><g clip-path="url(#c738e0f834)"><path fill="#b4b4b4" d="M 16.613281 1.234375 L 21.382812 1.214844 C 21.4375 3.941406 22.75 5.617188 24.21875 6.652344 C 24.21875 6.671875 24.238281 6.671875 24.238281 6.671875 C 25.273438 7.445312 26.5 7.84375 28.039062 7.878906 L 28.039062 12.640625 C 25.324219 12.640625 23.078125 11.761719 21.382812 10.5 L 21.367188 20.445312 C 21.332031 23.136719 20.175781 25.140625 18.773438 26.46875 C 18.652344 26.589844 18.53125 26.710938 18.394531 26.8125 C 16.59375 28.332031 14.832031 29.039062 12.410156 29.023438 C 10.027344 28.988281 8.226562 28.089844 6.707031 26.777344 C 5.566406 25.792969 4.648438 24.515625 4.128906 22.757812 C 3.007812 18.890625 4.425781 15.058594 7.621094 12.867188 C 7.691406 12.816406 7.777344 12.761719 7.863281 12.710938 C 10.457031 11.089844 13.535156 10.726562 16.59375 12.261719 C 16.613281 14.507812 16.59375 16.90625 16.59375 19.132812 C 15.871094 16.421875 12.273438 14.988281 9.921875 17.027344 C 9.90625 17.042969 9.851562 17.09375 9.835938 17.113281 C 8.902344 17.90625 8.488281 19.148438 8.554688 20.476562 C 8.730469 22.859375 10.699219 24.34375 12.84375 24.242188 C 12.84375 24.242188 12.859375 24.242188 12.859375 24.242188 C 14.9375 24.035156 16.648438 22.34375 16.59375 20.0625 Z M 16.613281 1.234375 " fill-opacity="1" fill-rule="evenodd"/></g><path fill="#b4b4b4" d="M 12.53125 13.585938 C 16.238281 13.585938 19.238281 16.597656 19.238281 20.292969 C 19.238281 23.988281 16.238281 26.976562 12.53125 26.976562 C 8.828125 26.976562 5.828125 23.988281 5.828125 20.292969 C 5.828125 16.597656 8.828125 13.585938 12.53125 13.585938 Z M 12.53125 16.949219 C 14.375 16.949219 15.882812 18.445312 15.882812 20.292969 C 15.882812 22.140625 14.375 23.636719 12.53125 23.636719 C 10.691406 23.636719 9.179688 22.140625 9.179688 20.292969 C 9.179688 18.445312 10.691406 16.949219 12.53125 16.949219 Z M 12.53125 16.949219 " fill-opacity="1" fill-rule="evenodd"/><path fill="#ffffff" d="M 15.578125 0.015625 L 20.347656 0 C 20.402344 2.726562 21.714844 4.402344 23.183594 5.4375 C 23.183594 5.453125 23.203125 5.453125 23.203125 5.453125 C 24.238281 6.230469 25.464844 6.628906 27.003906 6.664062 L 27.003906 11.425781 C 24.292969 11.425781 22.042969 10.546875 20.347656 9.285156 L 20.332031 19.230469 C 20.296875 21.921875 19.140625 23.921875 17.738281 25.253906 C 17.617188 25.375 17.496094 25.492188 17.359375 25.597656 C 15.558594 27.117188 13.796875 27.824219 11.375 27.808594 C 8.992188 27.773438 7.191406 26.875 5.671875 25.5625 C 4.53125 24.578125 3.613281 23.300781 3.097656 21.542969 C 1.972656 17.675781 3.390625 13.84375 6.585938 11.652344 C 6.65625 11.597656 6.742188 11.546875 6.828125 11.496094 C 9.421875 9.875 12.5 9.511719 15.558594 11.046875 C 15.578125 13.289062 15.558594 15.691406 15.558594 17.917969 C 14.835938 15.207031 11.238281 13.773438 8.886719 15.8125 C 8.871094 15.828125 8.816406 15.878906 8.800781 15.898438 C 7.867188 16.691406 7.453125 17.933594 7.523438 19.261719 C 7.695312 21.644531 9.664062 23.128906 11.808594 23.027344 C 11.808594 23.027344 11.828125 23.027344 11.828125 23.027344 C 13.902344 22.820312 15.613281 21.128906 15.558594 18.847656 Z M 15.578125 0.015625 " fill-opacity="1" fill-rule="evenodd"/><g clip-path="url(#1cc62fff9f)"><g clip-path="url(#430efd8b42)"><path fill="#ffffff" d="M 11.496094 12.386719 C 15.203125 12.386719 18.203125 15.398438 18.203125 19.09375 C 18.203125 22.789062 15.203125 25.777344 11.496094 25.777344 C 7.792969 25.777344 4.792969 22.789062 4.792969 19.09375 C 4.792969 15.398438 7.792969 12.386719 11.496094 12.386719 Z M 11.496094 15.75 C 13.339844 15.75 14.851562 17.246094 14.851562 19.09375 C 14.851562 20.941406 13.339844 22.433594 11.496094 22.433594 C 9.65625 22.433594 8.144531 20.941406 8.144531 19.09375 C 8.144531 17.246094 9.65625 15.75 11.496094 15.75 Z M 11.496094 15.75 " fill-opacity="1" fill-rule="evenodd"/></g></g><g clip-path="url(#f208f13a88)"><g clip-path="url(#ffbc07628f)"><path fill="#ffffff" d="M 16.609375 1.234375 L 21.382812 1.214844 C 21.433594 3.941406 22.75 5.617188 24.21875 6.652344 C 24.21875 6.671875 24.234375 6.671875 24.234375 6.671875 C 25.273438 7.445312 26.5 7.84375 28.039062 7.878906 L 28.039062 12.640625 C 25.324219 12.640625 23.078125 11.761719 21.382812 10.5 L 21.367188 20.445312 C 21.332031 23.136719 20.171875 25.140625 18.773438 26.46875 C 18.652344 26.589844 18.53125 26.710938 18.390625 26.8125 C 16.59375 28.332031 14.832031 29.039062 12.410156 29.023438 C 10.023438 28.988281 8.226562 28.089844 6.707031 26.777344 C 5.5625 25.792969 4.648438 24.515625 4.128906 22.757812 C 3.003906 18.890625 4.421875 15.058594 7.621094 12.867188 C 7.691406 12.816406 7.777344 12.761719 7.863281 12.710938 C 10.457031 11.089844 13.535156 10.726562 16.59375 12.261719 C 16.609375 14.507812 16.59375 16.90625 16.59375 19.132812 C 15.867188 16.421875 12.273438 14.988281 9.921875 17.027344 C 9.902344 17.042969 9.851562 17.09375 9.835938 17.113281 C 8.902344 17.90625 8.484375 19.148438 8.554688 20.476562 C 8.726562 22.859375 10.699219 24.34375 12.84375 24.242188 C 12.84375 24.242188 12.859375 24.242188 12.859375 24.242188 C 14.933594 24.035156 16.644531 22.34375 16.59375 20.0625 C 16.609375 13.78125 16.609375 7.5 16.609375 1.234375 Z M 16.609375 1.234375 " fill-opacity="1" fill-rule="evenodd"/></g></g></svg>